{
	"asset":{
		"generator":"Khronos glTF Blender I/O v4.0.44",
		"version":"2.0"
	},
	"extensionsUsed":[
		"KHR_materials_specular",
		"KHR_materials_ior"
	],
	"scene":0,
	"scenes":[
		{
			"name":"Scene",
			"nodes":[
				1
			]
		}
	],
	"nodes":[
		{
			"mesh":0,
			"name":"AKM_Kalachnikov",
			"rotation":[
				-0.019493622705340385,
				-0.48485052585601807,
				-0.0008296321611851454,
				0.8743793368339539
			],
			"translation":[
				-0.22999998927116394,
				0.4406183063983917,
				-1.3799999952316284
			]
		},
		{
			"children":[
				0
			],
			"name":"AKM Kalachnikov"
		}
	],
	"materials":[
		{
			"doubleSided":true,
			"extensions":{
				"KHR_materials_specular":{
					"specularColorFactor":[
						2.0,
						2.0,
						2.0
					]
				},
				"KHR_materials_ior":{
					"ior":1.4500000476837158
				}
			},
			"name":"AKM material",
			"normalTexture":{
				"index":0
			},
			"pbrMetallicRoughness":{
				"baseColorTexture":{
					"index":1
				},
				"metallicRoughnessTexture":{
					"index":2
				}
			}
		}
	],
	"meshes":[
		{
			"name":"Mesh.001",
			"primitives":[
				{
					"attributes":{
						"POSITION":0,
						"NORMAL":1,
						"TEXCOORD_0":2
					},
					"indices":3,
					"material":0
				}
			]
		}
	],
	"textures":[
		{
			"sampler":0,
			"source":0
		},
		{
			"sampler":0,
			"source":1
		},
		{
			"sampler":0,
			"source":2
		}
	],
	"images":[
		{
			"mimeType":"image/jpeg",
			"name":"AKM Normal",
			"uri":"AKM%20Normal.jpg"
		},
		{
			"mimeType":"image/jpeg",
			"name":"AKM BaseColor",
			"uri":"AKM%20BaseColor.jpg"
		},
		{
			"mimeType":"image/png",
			"name":"AKM Metallic-AKM Roughness",
			"uri":"AKM%20Metallic-AKM%20Roughness.png"
		}
	],
	"accessors":[
		{
			"bufferView":0,
			"componentType":5126,
			"count":15849,
			"max":[
				0.02058863639831543,
				0.0526747852563858,
				0.5434942245483398
			],
			"min":[
				-0.03274349868297577,
				-0.2041650116443634,
				-0.3476410508155823
			],
			"type":"VEC3"
		},
		{
			"bufferView":1,
			"componentType":5126,
			"count":15849,
			"type":"VEC3"
		},
		{
			"bufferView":2,
			"componentType":5126,
			"count":15849,
			"type":"VEC2"
		},
		{
			"bufferView":3,
			"componentType":5123,
			"count":57333,
			"type":"SCALAR"
		}
	],
	"bufferViews":[
		{
			"buffer":0,
			"byteLength":190188,
			"byteOffset":0,
			"target":34962
		},
		{
			"buffer":0,
			"byteLength":190188,
			"byteOffset":190188,
			"target":34962
		},
		{
			"buffer":0,
			"byteLength":126792,
			"byteOffset":380376,
			"target":34962
		},
		{
			"buffer":0,
			"byteLength":114666,
			"byteOffset":507168,
			"target":34963
		}
	],
	"samplers":[
		{
			"magFilter":9729,
			"minFilter":9987
		}
	],
	"buffers":[
		{
			"byteLength":621836,
			"uri":"untitled.bin"
		}
	]
}
